<?xml version="1.0" encoding="utf-8"?>
<!-- Generator: Adobe Illustrator 28.1.0, SVG Export Plug-In . SVG Version: 6.00 Build 0)  -->
<svg version="1.1" id="Layer_1" xmlns="http://www.w3.org/2000/svg" xmlns:xlink="http://www.w3.org/1999/xlink" x="0px" y="0px"
	 viewBox="0 0 800 800" style="enable-background:new 0 0 800 800;" xml:space="preserve">
<style type="text/css">
	.st0{fill:none;stroke:#0369A1;stroke-width:82.6233;stroke-linecap:round;stroke-miterlimit:10;}
	.st1{fill:#0EA5E9;}
	.st2{fill:#FFFFFF;stroke:#FFFFFF;stroke-width:1.079;stroke-linecap:round;stroke-linejoin:round;stroke-miterlimit:10;}
	.st3{fill:#0369A1;}
	.st4{fill:none;stroke:#0EA5E9;stroke-width:6;stroke-miterlimit:10;}
	.st5{fill:none;stroke:#0EA5E9;stroke-width:8;stroke-miterlimit:10;}
</style>
<g>
	<g>
		<path class="st0" d="M393.99,203.48c-58.08,0-110.86,22.7-149.94,59.71c-41.98,39.75-68.17,96.02-68.17,158.4
			c0,23.02,3.57,45.2,10.18,66.04c27.98,88.18,110.5,152.08,207.94,152.08c120.46,0,218.11-97.65,218.11-218.11
			c0-20.53-2.84-40.4-8.14-59.24"/>
		<circle class="st1" cx="393.99" cy="203.48" r="55.42"/>
		<g>
			<path class="st2" d="M377.49,222.51c4.36-5.04,8.6-9.93,12.84-14.83c13.04-15.07,26.08-30.13,39.09-45.23
				c2.04-2.36,4.43-3.76,7.6-3.49c3.32,0.28,5.71,1.99,7.03,5.05c1.36,3.16,0.83,6.14-1.33,8.73c-3.31,3.96-6.73,7.83-10.11,11.74
				c-15.98,18.47-31.96,36.95-47.95,55.42c-4.17,4.82-9.49,4.9-13.84,0.19c-8.31-9-16.6-18.01-24.92-27c-2-2.16-3.13-4.61-2.58-7.58
				c0.62-3.33,2.56-5.64,5.83-6.64c3.36-1.03,6.3-0.13,8.67,2.4c5.83,6.24,11.6,12.54,17.39,18.81
				C375.92,220.85,376.65,221.61,377.49,222.51z"/>
		</g>
	</g>
	<g>
		<g>
			<path class="st3" d="M393.99,539.73c65.25,0,118.14-52.89,118.14-118.14s-52.89-118.14-118.14-118.14
				s-118.14,52.89-118.14,118.14S328.74,539.73,393.99,539.73z M393.99,374.43v42.27l31.98,31.98c4.62,4.61,4.62,12.09,0.01,16.71
				c-4.61,4.62-12.09,4.62-16.71,0.01l0,0l-35.44-35.44c-2.22-2.22-3.46-5.23-3.46-8.36v-47.16c0-6.52,5.29-11.81,11.81-11.81
				C388.7,362.62,393.99,367.91,393.99,374.43L393.99,374.43z"/>
		</g>
	</g>
	<g>
		<circle class="st1" cx="295.73" cy="613.76" r="55.42"/>
		<g>
			<path class="st2" d="M279.24,632.79c4.36-5.04,8.6-9.93,12.84-14.83c13.04-15.07,26.08-30.13,39.09-45.23
				c2.04-2.36,4.43-3.76,7.6-3.49c3.32,0.28,5.71,1.99,7.03,5.05c1.36,3.16,0.83,6.14-1.33,8.73c-3.31,3.96-6.73,7.83-10.11,11.74
				c-15.98,18.47-31.96,36.95-47.95,55.42c-4.17,4.82-9.49,4.9-13.84,0.19c-8.31-9-16.6-18.01-24.92-27c-2-2.16-3.13-4.61-2.58-7.58
				c0.62-3.33,2.56-5.64,5.83-6.64c3.36-1.03,6.31-0.13,8.67,2.4c5.83,6.24,11.6,12.54,17.39,18.81
				C277.67,631.14,278.39,631.9,279.24,632.79z"/>
		</g>
	</g>
	<circle class="st4" cx="600.48" cy="340.25" r="51.2"/>
	<circle class="st5" cx="600.48" cy="340.25" r="63.37"/>
</g>
</svg>
